<?xml version="1.0"?>
<!DOCTYPE svg PUBLIC "-//W3C//DTD SVG 1.1//EN" "http://www.w3.org/Graphics/SVG/1.1/DTD/svg11.dtd">
<svg width="7.5276mm" height="2.2943258784908203mm" viewBox="0 0 7.5276 2.2943258784908203" xmlns="http://www.w3.org/2000/svg" version="1.1">
<g id="Sketch031" transform="translate(13.763800,-14.102837) scale(1,-1)">
<path id="Sketch031_w0000"  d="M -9.420344930152384 -14.670000000000039 A 0.82 0.82 0 1 1 -9.42034 -15.83L -9.420344930152368 -16.16126285999152 A 1.08 1.08 0 0 0 -11.0741 -15.3631L -11.576055029899567 -15.363137084989843 A 1.06 1.06 0 1 0 -11.5761 -15.1369L -11.074057726567805 -15.136862915010155 A 1.08 1.08 0 0 0 -9.42034 -14.3387L -9.420344930152384 -14.670000000000039 " stroke="#000000" stroke-width="0.35 px" style="stroke-width:0.35;stroke-miterlimit:4;stroke-dasharray:none;fill:none;fill-rule: evenodd "/>
<path id="Sketch031_w0001"  d="M -8.423944970100433 -15.363137084989841 A 1.06 1.06 0 1 1 -8.42394 -15.1369L -9.679375609162356 -15.136862915010173 A 0.34 0.34 0 1 1 -9.67938 -15.3631L -8.423944970100433 -15.363137084989841 " stroke="#000000" stroke-width="0.35 px" style="stroke-width:0.35;stroke-miterlimit:4;stroke-dasharray:none;fill:none;fill-rule: evenodd "/>
<path id="Sketch031_w0002"  d="M -13.188659108938648 -15.136862915010152 L -12.068659108938649 -15.136862915010152 L -12.068659108938649 -15.366862915010152 L -13.188659108938648 -15.366862915010152 L -13.188659108938648 -15.136862915010152 " stroke="#000000" stroke-width="0.35 px" style="stroke-width:0.35;stroke-miterlimit:4;stroke-dasharray:none;fill:none;fill-rule: evenodd "/>
<path id="Sketch031_w0003"  d="M -7.483137084989847 -15.136862915010152 L -8.051880461125458 -15.136862915010152 L -8.051880461125458 -15.363137084989843 L -7.483137084989847 -15.363137084989843 L -7.483137084989847 -15.931880461125457 L -7.256862915010153 -15.931880461125457 L -7.256862915010153 -15.363137084989848 L -6.688119538874543 -15.363137084989848 L -6.688119538874543 -15.136862915010152 L -7.256862915010153 -15.136862915010152 L -7.256862915010153 -14.568119538874543 L -7.483137084989847 -14.568119538874543 L -7.483137084989847 -15.136862915010152 " stroke="#000000" stroke-width="0.35 px" style="stroke-width:0.35;stroke-miterlimit:4;stroke-dasharray:none;fill:none;fill-rule: evenodd "/>
<circle cx="-12.629999999999999" cy="-15.249999999999996" r="0.83" stroke="#000000" stroke-width="0.35 px" style="stroke-width:0.35;stroke-miterlimit:4;stroke-dasharray:none;fill:none"/>
<circle cx="-7.37" cy="-15.25" r="0.83" stroke="#000000" stroke-width="0.35 px" style="stroke-width:0.35;stroke-miterlimit:4;stroke-dasharray:none;fill:none"/>
<title>b'dc_connector_sign'</title>
</g>
</svg>