<?xml version="1.0"?>
<!DOCTYPE svg PUBLIC "-//W3C//DTD SVG 1.1//EN" "http://www.w3.org/Graphics/SVG/1.1/DTD/svg11.dtd">
<svg width="12.67311824402858mm" height="12.353920138530327mm" viewBox="0 0 12.67311824402858 12.353920138530327" xmlns="http://www.w3.org/2000/svg" version="1.1">
<g id="Sketch030" transform="translate(6.404763,6.189109) scale(1,-1)">
<path id="Sketch030_w0000"  d="M -5.895969 -2.485939 C -6.40513 -2.814065 -6.3087835000000005 -3.049422 -6.192982083333334 -3.2214558333333336 C -6.077180666666667 -3.3934896666666665 -5.941924333333334 -3.502200333333333 -5.668543166666667 -3.5887539999999998 C -5.395162 -3.675307666666667 -4.983656 -3.7397043333333335 -4.611954333333333 -3.6172685 C -4.240252666666667 -3.494832666666667 -3.9083553333333336 -3.1855643333333337 -3.9875581666666666 -3.0158438333333337 C -4.066761 -2.8461233333333333 -4.5570640000000004 -2.8159506666666667 -4.880004000000001 -2.663673583333334 C -5.2029440000000005 -2.5113965 -5.358521 -2.237015 -5.895969 -2.485939 " stroke="#000000" stroke-width="0.35 px" style="stroke-width:0.35;stroke-miterlimit:4;stroke-dasharray:none;fill:none;fill-rule: evenodd "/>
<path id="Sketch030_w0001"  d="M 4.084976451530244 0.644821593001096 C 4.262267836197825 1.1075578573322549 4.402351968714491 1.27982967579684 4.5249124909399345 1.4031083462937555 C 4.647473013165378 1.5263870167906712 4.7525099250995995 1.6006725393199175 4.81904924913826 1.751529536180711 C 4.885588573176921 1.9023865330415046 4.913630309320023 2.129815004233845 5.001634661140766 2.3175662641076955 C 5.089639012961509 2.505317523981546 5.237605980459892 2.6533915725369064 5.411948182852915 2.7294037422022495 C 5.586290385245937 2.805415911867592 5.7870078225335995 2.8093662026429174 5.921504738682376 2.7468939090878224 C 6.056001654831153 2.6844216155327274 6.124278049841044 2.5555267376472113 6.140519771848323 2.4027253458454023 C 6.156761493855605 2.2499239540435934 6.120968542860275 2.073216048325492 6.049229026249288 1.9107431204997902 C 5.977489509638298 1.748270192674088 5.86980342741165 1.6000322427407858 5.766089162100825 1.4848558856395542 C 5.66237489679 1.3696795285383225 5.562632448395 1.2875647642691612 5.49704091338839 1.1796650469408236 C 5.43144937838178 1.071765329612486 5.400008756763561 0.9380806592249719 5.312277556920698 0.7946075296726156 C 5.224546357077835 0.6511344001202597 5.080524579010328 0.49787281140306183 4.938672910740516 0.358930877508441 C 4.7968212424707035 0.21998894361382 4.657139683998585 0.09536666454177606 4.554683164939391 0.14006687373354515 C 4.452226645880197 0.18476708292531419 4.386995166233929 0.3987897803808958 4.0849764515302445 0.6448215930010956 " stroke="#000000" stroke-width="0.35 px" style="stroke-width:0.35;stroke-miterlimit:4;stroke-dasharray:none;fill:none;fill-rule: evenodd "/>
<path id="Sketch030_w0002"  d="M 2.914343649415391 1.425463201689807 C 3.156700670893187 2.00108239785536 3.3765524862647496 2.4657316801968374 3.4542323650867486 2.7934399747419407 C 3.5319122439087476 3.121148269287045 3.467420186181182 3.3119155760357755 3.5251697053093776 3.5099764822966177 C 3.582919224437573 3.70803738855746 3.762910320421529 3.9133918943304136 3.848625446676155 4.210659535851797 C 3.9343405729307808 4.5079271773731815 3.9257797294560772 4.897107954642996 3.7731607196785992 5.12232506793715 C 3.6205417099011217 5.347542181231304 3.3238645338208697 5.4087956305497995 3.0938255358411633 5.296959779374814 C 2.863786537861457 5.185123928199827 2.7003857179822965 4.90019877653136 2.655666337954268 4.610904052140419 C 2.6109469579262394 4.321609327749478 2.6849090177493418 4.027945030636063 2.652592172438474 3.8077627492193544 C 2.6202753271276062 3.587580467802646 2.481679576682768 3.440880202082644 2.451726022323876 3.232202760108921 C 2.4217724679649844 3.0235253181351984 2.500461109692039 2.752870699907755 2.459748548808043 2.567203010918128 C 2.419035987924046 2.381535321928501 2.258922224428998 2.28085456217669 2.1723008005498032 2.0647514590269314 C 2.0856793766706083 1.8486483558771731 2.072550292407266 1.5171229093294674 2.2146622692547373 1.2668810143899387 C 2.356774246102209 1.0166391194504099 2.654127284060494 0.8476807761190581 2.914343649415391 1.425463201689807 " stroke="#000000" stroke-width="0.35 px" style="stroke-width:0.35;stroke-miterlimit:4;stroke-dasharray:none;fill:none;fill-rule: evenodd "/>
<path id="Sketch030_w0003"  d="M 0.907194978697761 2.107222841122849 C 0.9178964269132625 2.52249135322721 0.7789596275316641 2.7216699734085408 0.7792774936138653 2.90774575874325 C 0.7795953596960665 3.093821544077958 0.9191678912420667 3.266794494566044 0.9943095862306857 3.4484161409308527 C 1.0694512812193047 3.6300377872956613 1.0801621396505423 3.820308129537192 1.0683373316674214 3.9842102530864545 C 1.0565125236843007 4.1481123766357175 1.0221520492868212 4.2856462814927125 1.0530763020986815 4.411719811062678 C 1.0840005549105416 4.537793340632643 1.1802095349317416 4.652406494915578 1.2205025320383849 4.844786477602595 C 1.2607955291450281 5.037166460289612 1.2451725433371146 5.307313271380709 1.2106397782313458 5.517518060083708 C 1.176107013125577 5.727722848786708 1.1226644687219534 5.877985615101609 1.0064229650042775 5.9689692590388805 C 0.8901814612866019 6.059952902976152 0.7111409982548742 6.091657424535791 0.5712069700176411 6.0408168129756366 C 0.43127294178040776 5.989976201415482 0.33044534833766925 5.856590456735534 0.2446175479648258 5.666080083622525 C 0.15878974759198233 5.475569710509516 0.08796174028903386 5.227934708963446 0.09728103456901868 4.998241847766164 C 0.1066003288490035 4.768548986568883 0.19606692471192158 4.55679826572039 0.19709579447985218 4.419963922696088 C 0.1981246642477828 4.283129579671785 0.1107158079207263 4.221211614471673 0.06492786246907063 4.070381608174716 C 0.01913991701741487 3.9195516018777594 0.014972882441160136 3.679809554483958 0.04146418198213521 3.5072311461155024 C 0.06795548152311028 3.3346527377470467 0.12510511518131515 3.229237968403937 0.1202451147311653 3.086688475616378 C 0.11538511428101544 2.944138982828819 0.048515479722510906 2.7644547665968098 0.023368319486711118 2.5873090611770566 C -0.0017788407490886213 2.410163355757304 0.014796473337816219 2.2355561611498063 0.10165890012542261 2.056193673881239 C 0.18852132691302922 1.8768311866126712 0.34567086640133765 1.6927134066830345 0.5107729704568158 1.6593563481323006 C 0.6758750745122939 1.625999289581567 0.8489297431349416 1.743402952409736 0.9071949786977613 2.1072228411228493 " stroke="#000000" stroke-width="0.35 px" style="stroke-width:0.35;stroke-miterlimit:4;stroke-dasharray:none;fill:none;fill-rule: evenodd "/>
<path id="Sketch030_w0004"  d="M 3.919110393445919 0.34583576569865 C 3.6974241990816923 0.3877785254754322 3.620155531196388 0.321372514142676 3.560546980067696 0.25785158765285765 C 3.500938428939003 0.19433066116303932 3.4589899945669225 0.133694819516159 3.4694976335272143 0.07651447788897753 C 3.4800052724875066 0.019334136261796014 3.542968984780172 -0.0343907053456866 3.586523560825756 -0.10166378849708879 C 3.63007813687134 -0.16893687164849097 3.654223576669842 -0.2497581963438128 3.715252457449928 -0.2680303416082442 C 3.7762813382300147 -0.28630248687267557 3.8741936599916857 -0.24202545270621645 3.947355390363816 -0.17631151105667814 C 4.020517120735946 -0.11059756940713983 4.068928259718535 -0.0234467202745223 3.9191103934459193 0.3458357656986501 " stroke="#000000" stroke-width="0.35 px" style="stroke-width:0.35;stroke-miterlimit:4;stroke-dasharray:none;fill:none;fill-rule: evenodd "/>
<path id="Sketch030_w0005"  d="M -1.045113254471096 -5.98768897428271 Q -0.8619512549223319 -6.077194794220033 -0.6210130537965719 -6.020208967683377 C -0.3434827448623113 -5.740369828023445 -0.047705559696179636 -5.846635691221021 0.1711732332371503 -5.804780655094608 C 0.39005202617048046 -5.762925618968195 0.5320324268710088 -5.572949683517792 0.609122290403205 -5.37719565835825 C 0.6862121539354009 -5.181441633198709 0.6984114802992649 -4.979909518330029 0.7372866677625444 -4.821294705754688 C 0.7761618552258238 -4.662679893179348 0.8417129037885187 -4.546982382897348 0.7875309512851325 -4.332238420822456 C 0.7333489987817464 -4.117494458747564 0.5594340452122792 -3.8037040448797796 0.3996868982984946 -3.6874214154152924 C 0.23993975138471002 -3.5711387859508053 0.09436041112660803 -3.652363940889615 -0.02286826922018332 -3.5409813076848575 C -0.14009694956697477 -3.4295986744800997 -0.2289749700024555 -3.125608253131775 -0.731547602768122 -2.910625061199295 Q -0.3782066258607445 -2.285914540282431 -0.4521460136328898 -1.5866069976878334 C 0.5011798423987052 -1.255188571528128 0.7768246391398442 -1.454602067522028 0.9871550848551346 -1.5411942961291092 C 1.1974855305704253 -1.6277865247361905 1.342501625259867 -1.601557485956453 1.408298002289062 -1.7493059168674239 C 1.474094379318257 -1.8970543477783943 1.4606710386872055 -2.218780248380073 1.4302770885415175 -2.53490224486845 C 1.3998831383958292 -2.8510242413568276 1.3525185787355047 -3.1615423337319037 1.4368411172661162 -3.3804994424858785 C 1.5211636557967272 -3.5994565512398538 1.7371732925182743 -3.726852676372727 1.7483855800684416 -3.8796914890046184 C 1.759597867618609 -4.032530301636509 1.5660128059973966 -4.2108118017674165 1.5628529758693184 -4.441322680814562 C 1.5596931457412402 -4.671833559861706 1.7469585471062965 -4.954573817825087 1.9480540873876406 -5.151847560721187 C 2.1491496276689848 -5.349121303617288 2.364075306866617 -5.460928531446109 2.572004431677148 -5.349451410471195 C 2.7799335564876784 -5.237974289496281 2.9808661269111076 -4.903212819717631 3.10789544465805 -4.591827063399144 C 3.234924762404993 -4.2804413070806575 3.288050827475449 -3.992431264222335 3.382192033845212 -3.6661410893349284 C 3.476333240214974 -3.3398509144475224 3.6114895878840425 -2.9752806075310323 3.665700944749112 -2.717680743229576 C 3.7199123016141815 -2.46008087892812 3.6931786676752516 -2.309451457241698 3.7607392800417263 -2.074958835354132 C 3.828299892408201 -1.8404662134665664 3.990154751080079 -1.5221103913778566 3.8777497333444884 -0.75864127080083 C 3.6973692562930585 -0.5527554633539594 3.6149429910998485 -0.5249733662049857 3.537708737518804 -0.48484777278783014 C 3.4604744839377592 -0.44472217937067454 3.3884322419688795 -0.39225308968533723 3.313649601154381 -0.36218024920335534 C 3.2388669603398816 -0.33210740872137356 3.1613439206797636 -0.32443081744274715 3.1153914159969274 -0.28171938770842675 C 3.0694389113140907 -0.23900795797410634 3.0550569416085356 -0.16126168978409203 3.008236794771928 -0.09010998542340527 C 2.9614166479353203 -0.01895828106271852 2.8821583239676603 0.04559885946864065 2.8026498277308427 0.09595868613948474 C 2.7231413314940243 0.14631851281032898 2.643382662988049 0.18248102562065804 2.5639223697272637 0.19687797496068368 C 2.484462076466478 0.21127492430070927 2.405300158450884 0.2039063101704316 2.3515666950838563 0.24648003637873217 C 2.297833231716828 0.28905376258703275 2.2695282229983667 0.38156982913391163 2.197517486970378 0.41997863519784895 C 2.1255067509423897 0.4583874412617863 2.0097902876048734 0.442688986842782 1.9216464185582227 0.38669433756265037 C 1.8335025495115715 0.33069968828251856 1.772931274755786 0.23440884414125918 1.7157173527953145 0.23096359241882242 C 1.6585034308348428 0.22751834069638566 1.6046468616696856 0.31691868139277113 1.5424714841215894 0.3961528613948343 C 1.4802961065734932 0.4753870413968976 1.409801920642458 0.5444550607046384 1.3111125733082458 0.5506845455989853 C 1.2124232259740342 0.5569140304933319 1.0855387172366462 0.5003049809742848 0.9828294055899031 0.5050696240897083 C 0.8801200939431599 0.5098342672051318 0.8015859793870619 0.5759726029550258 0.697864524812901 0.6348631098613267 C 0.5941430702387397 0.6937536167676275 0.46523427564651554 0.7453962948303348 0.2928354662690657 0.8146865974787209 C 0.12043665689161621 0.8839769001271066 -0.09545216727105871 0.970914827361171 -0.24222111989101175 0.9530051611708954 C -0.3889900725109648 0.93509549498062 -0.46663915358819597 0.8123382353660046 -0.6267602680643289 0.7653788054726023 C -0.7868813825404618 0.7184193755792001 -1.0294745304154964 0.7472577754070109 -1.2258309172045205 0.731258597623009 C -1.4221873039935444 0.7152594198390072 -1.5723069296965577 0.6544226644431927 -1.678206503552043 0.5229962581638996 C -1.7841060774075288 0.39156985188460597 -1.8457855994154864 0.18955379472183323 -1.8418338968761874 -0.01316574529092275 C -1.837882194336888 -0.21588528530367823 -1.7682992672503324 -0.4193083081664169 -1.7273841960409624 -0.5970473739052357 C -1.6864691248315924 -0.7747864396440545 -1.674221909499408 -0.9268415482589534 -1.5329740085102772 -1.206343932088199 C -1.3917261075211467 -1.4858463159174446 -1.1214775208750698 -1.8927959749610372 -1.0063911662146101 -1.7917274607912372 C -0.8641167968084758 -1.828476456913491 -0.8595549320306111 -1.891205187906464 -0.8769206550995543 -1.929915566919711 C -0.8942863781684975 -1.968625945932958 -0.9335796890842487 -1.983317972966479 -0.9702314344838602 -1.9923539280843225 C -1.0068831798834716 -2.001389883202166 -1.0408933597669434 -2.0047697664043325 -1.0766075647960753 -2.039527295603791 C -1.1123217698252075 -2.0742848248032493 -1.14974 -2.14042 -1.1503523877314492 -2.28340574730413 C -1.1606017198381218 -2.350135016893092 -1.2627226964790579 -2.3233019887419704 -1.2593074753640208 -2.2559608293421403 C -1.2245741917311912 -2.0277548661284945 -1.2762129506318636 -1.9883286033359096 -1.3290614047898028 -1.9949263731050269 C -1.3819098589477423 -2.0015241428741444 -1.4359680083629485 -2.054145945204964 -1.5019070720343541 -2.082159452488516 C -1.5678461357057598 -2.110172959772068 -1.645666113633365 -2.1135781720083515 -1.700080063523858 -2.150972686194809 C -1.7544940134143512 -2.1883672003812658 -1.7855019352677317 -2.259751016517896 -1.8184406438224516 -2.339308432430435 C -1.8513793523771715 -2.418865848342974 -1.8862488476332306 -2.506596864031422 -1.857742852288696 -2.6032973295698314 C -1.8292368569441613 -2.6999977951082403 -1.737355370999033 -2.8056677104966106 -1.6119212271937267 -2.902928010885135 Q -1.744535655111167 -2.891506410106255 -1.6762647388183092 -3.018807922477128 C -2.424632327764439 -3.132366294369139 -2.54322825358832 -3.3601295657326036 -2.7292148314679454 -3.45697348190493 C -2.9152014093475707 -3.5538173980772556 -3.1685786392829405 -3.519741959058444 -3.3186459969066937 -3.519894203340815 C -3.468713354530447 -3.5200464476231863 -3.5154708398425845 -3.55442637520674 -3.5602135332746423 -3.6158106281298332 C -3.6049562267066997 -3.677194881052926 -3.6476841282586783 -3.7655834593155566 -3.5758787404773202 -3.882503218282762 C -3.504073352695962 -3.999422977249967 -3.317734675581268 -4.144873916921746 -3.1523094420908837 -4.193340377075458 C -2.9868842086004994 -4.241806837229171 -2.8423724187344246 -4.193288817864817 -2.7363249192465573 -4.267500275038668 C -2.63027741975869 -4.34171173221252 -2.5626942106490302 -4.5386526659245785 -2.4720686709596347 -4.749029114134916 C -2.3814431312702387 -4.959405562345253 -2.267775261001107 -5.1832175250538715 -2.140808632884473 -5.303388690464818 C -2.0138420047678394 -5.423559855875764 -1.8735766188037037 -5.4400902239890385 -1.7186213804440604 -5.490865649010611 C -1.563666142084417 -5.541641074032183 -1.3940210513292657 -5.626661555962053 -1.0451132544710964 -5.98768897428271 " stroke="#000000" stroke-width="0.35 px" style="stroke-width:0.35;stroke-miterlimit:4;stroke-dasharray:none;fill:none;fill-rule: evenodd "/>
<path id="Sketch030_w0006"  d="M -1.2460185823166 0.807199060780716 C -1.4356021893478979 0.6650160067801887 -1.523136204440132 0.7304031478628942 -1.5868734848462105 0.8166134660458009 C -1.6506107652522894 0.9028237842287079 -1.6905513109722121 1.0098572795118164 -1.7426781475374096 1.1370601146877788 C -1.794804984102607 1.264262949863741 -1.8591181115130788 1.4116351249325567 -1.8953211273246902 1.5408993307841983 C -1.9315241431363015 1.6701635366358403 -1.9396170473490522 1.7813197732703072 -1.9285767036853918 1.8607480271643977 C -1.9175363600217312 1.9401762810584886 -1.8873627684816596 1.9878765522122028 -1.8976738699615399 2.022175900155636 C -1.90798497144142 2.0564752480990696 -1.9587807659412522 2.0773736728322225 -2.0015875054840078 2.1475132133022186 C -2.0443942450267634 2.217652753772215 -2.0792119296124425 2.3370334099790555 -2.099617502872262 2.4654497270514932 C -2.1200230761320813 2.593866044123931 -2.126016538066041 2.7313180220619655 -2.1200665947903814 2.871474481479065 C -2.114116651514722 3.011630940896164 -2.0962233030294435 3.154491881792327 -2.0603865012381 3.2824692172577765 C -2.024549699446757 3.410446552723226 -1.970769444349349 3.5235402827579625 -1.9966530785333374 3.583507013100397 C -2.0225367127173257 3.643473743442832 -2.128084236182711 3.6503134740929646 -2.1948577468867 3.766868053573668 C -2.2616312575906887 3.88342263305437 -2.289630755533282 4.109692061365642 -2.307476372178006 4.324948502716832 C -2.3253219888227297 4.540204944068021 -2.333013724169584 4.744448398459127 -2.296074974135475 4.9386541266834785 C -2.2591362241013657 5.13285985490783 -2.177566988686293 5.317027856965426 -2.046348460028527 5.41732946650825 C -1.9151299313707604 5.5176310760510745 -1.7342621094703006 5.534066293079126 -1.580762507892178 5.481557468636404 C -1.4272629063140563 5.429048644193681 -1.301131525058272 5.307595778280188 -1.2185655067872254 5.156170307631604 C -1.135999488516179 5.00474483698302 -1.0969988332298704 4.823346761599346 -1.0833636332950982 4.656600009911882 C -1.069728433360326 4.489853258224416 -1.0814586887770907 4.337757830233162 -1.0969767547828222 4.180772620925165 C -1.1124948207885534 4.023787411617167 -1.1318006973832517 3.861912420992425 -1.1975410881178286 3.779748058819819 C -1.2632814788524054 3.697583696647213 -1.3754563837268605 3.6951299629267416 -1.3834027978929764 3.6726176083107864 C -1.391349212059092 3.650105253694831 -1.2950671355168684 3.6075342781833912 -1.2583602540833154 3.485088239982346 C -1.2216533726497627 3.362642201781301 -1.2445216863248816 3.16032110089065 -1.256257419510986 2.9893633792962255 C -1.26799315269709 2.8184056577018017 -1.26859630539418 2.678811315403604 -1.2605829509197986 2.568823500154183 C -1.252569596445417 2.458835684904762 -1.2359397347995644 2.378454396704118 -1.2734265938275415 2.319785392447218 C -1.3109134528555186 2.2611163881903176 -1.402517032557326 2.224159667877162 -1.3989404585573981 2.184658947618651 C -1.3953638845574703 2.14515822736014 -1.2966071568558066 2.103113507156274 -1.2404442023835451 2.0237232726809373 C -1.1842812479112839 1.9443330382056006 -1.1707120666684245 1.8275972894587933 -1.1688703883974207 1.7049695092770942 C -1.167028710126417 1.5823417290953952 -1.1769145348272685 1.453821917478804 -1.14985347325062 1.3488482647189244 C -1.1227924116739716 1.2438746119590447 -1.0587844638198232 1.1624471180558762 -1.0232702737768278 1.086609615812052 C -0.9877560837338325 1.0107721135682275 -0.9807356515019906 0.9405246029837471 -0.998372045970565 0.888756539089818 C -1.0160084404391392 0.8369884751958891 -1.0583016616081296 0.8036998579925115 -1.2460185823166 0.8071990607807157 " stroke="#000000" stroke-width="0.35 px" style="stroke-width:0.35;stroke-miterlimit:4;stroke-dasharray:none;fill:none;fill-rule: evenodd "/>
<title>b'hand_logo004'</title>
</g>
</svg>